<?xml version="1.0" encoding="UTF-8" standalone="no"?>
<!DOCTYPE svg PUBLIC "-//W3C//DTD SVG 1.1//EN"
 "http://www.w3.org/Graphics/SVG/1.1/DTD/svg11.dtd">
<!-- Generated by graphviz version 2.38.0 (20140413.2041)
 -->
<!-- Title: G Pages: 1 -->
<svg width="1006pt" height="2824pt"
 viewBox="0.00 0.00 1006.37 2824.00" xmlns="http://www.w3.org/2000/svg" xmlns:xlink="http://www.w3.org/1999/xlink">
<g id="graph0" class="graph" transform="scale(1 1) rotate(0) translate(4 2820)">
<title>G</title>
<polygon fill="white" stroke="none" points="-4,4 -4,-2820 1002.37,-2820 1002.37,4 -4,4"/>
<g id="clust1" class="cluster"><title>cluster_Global</title>
<path fill="none" stroke="gray" d="M20,-44C20,-44 978.37,-44 978.37,-44 984.37,-44 990.37,-50 990.37,-56 990.37,-56 990.37,-2796 990.37,-2796 990.37,-2802 984.37,-2808 978.37,-2808 978.37,-2808 20,-2808 20,-2808 14,-2808 8,-2802 8,-2796 8,-2796 8,-56 8,-56 8,-50 14,-44 20,-44"/>
<text text-anchor="middle" x="499.185" y="-2795.2" font-family="Times,serif" font-size="11.00" fill="gray">Global</text>
</g>
<g id="clust2" class="cluster"><title>cluster_\LM</title>
<path fill="none" stroke="gray" d="M205.988,-52C205.988,-52 970.37,-52 970.37,-52 976.37,-52 982.37,-58 982.37,-64 982.37,-64 982.37,-2572 982.37,-2572 982.37,-2578 976.37,-2584 970.37,-2584 970.37,-2584 205.988,-2584 205.988,-2584 199.988,-2584 193.988,-2578 193.988,-2572 193.988,-2572 193.988,-64 193.988,-64 193.988,-58 199.988,-52 205.988,-52"/>
<text text-anchor="middle" x="588.179" y="-2571.2" font-family="Times,serif" font-size="11.00" fill="gray">LM</text>
</g>
<g id="clust3" class="cluster"><title>cluster_\LM\AuthAbstractor</title>
<path fill="none" stroke="gray" d="M213.988,-524C213.988,-524 962.37,-524 962.37,-524 968.37,-524 974.37,-530 974.37,-536 974.37,-536 974.37,-2544 974.37,-2544 974.37,-2550 968.37,-2556 962.37,-2556 962.37,-2556 213.988,-2556 213.988,-2556 207.988,-2556 201.988,-2550 201.988,-2544 201.988,-2544 201.988,-536 201.988,-536 201.988,-530 207.988,-524 213.988,-524"/>
<text text-anchor="middle" x="588.179" y="-2543.2" font-family="Times,serif" font-size="11.00" fill="gray">AuthAbstractor</text>
</g>
<g id="clust4" class="cluster"><title>cluster_\LM\AuthAbstractor\Challenge</title>
<path fill="none" stroke="gray" d="M519.679,-1944C519.679,-1944 954.37,-1944 954.37,-1944 960.37,-1944 966.37,-1950 966.37,-1956 966.37,-1956 966.37,-2382 966.37,-2382 966.37,-2388 960.37,-2394 954.37,-2394 954.37,-2394 519.679,-2394 519.679,-2394 513.679,-2394 507.679,-2388 507.679,-2382 507.679,-2382 507.679,-1956 507.679,-1956 507.679,-1950 513.679,-1944 519.679,-1944"/>
<text text-anchor="middle" x="737.025" y="-2381.2" font-family="Times,serif" font-size="11.00" fill="gray">Challenge</text>
</g>
<g id="clust5" class="cluster"><title>cluster_\LM\AuthAbstractor\Configuration</title>
<path fill="none" stroke="gray" d="M469.179,-1184C469.179,-1184 646.179,-1184 646.179,-1184 652.179,-1184 658.179,-1190 658.179,-1196 658.179,-1196 658.179,-1244 658.179,-1244 658.179,-1250 652.179,-1256 646.179,-1256 646.179,-1256 469.179,-1256 469.179,-1256 463.179,-1256 457.179,-1250 457.179,-1244 457.179,-1244 457.179,-1196 457.179,-1196 457.179,-1190 463.179,-1184 469.179,-1184"/>
<text text-anchor="middle" x="557.679" y="-1243.2" font-family="Times,serif" font-size="11.00" fill="gray">Configuration</text>
</g>
<g id="clust6" class="cluster"><title>cluster_\LM\AuthAbstractor\Controller</title>
<path fill="none" stroke="gray" d="M746.37,-1810C746.37,-1810 944.37,-1810 944.37,-1810 950.37,-1810 956.37,-1816 956.37,-1822 956.37,-1822 956.37,-1924 956.37,-1924 956.37,-1930 950.37,-1936 944.37,-1936 944.37,-1936 746.37,-1936 746.37,-1936 740.37,-1936 734.37,-1930 734.37,-1924 734.37,-1924 734.37,-1822 734.37,-1822 734.37,-1816 740.37,-1810 746.37,-1810"/>
<text text-anchor="middle" x="845.37" y="-1923.2" font-family="Times,serif" font-size="11.00" fill="gray">Controller</text>
</g>
<g id="clust7" class="cluster"><title>cluster_\LM\AuthAbstractor\Enum</title>
<path fill="none" stroke="gray" d="M773.87,-1614C773.87,-1614 915.87,-1614 915.87,-1614 921.87,-1614 927.87,-1620 927.87,-1626 927.87,-1626 927.87,-1790 927.87,-1790 927.87,-1796 921.87,-1802 915.87,-1802 915.87,-1802 773.87,-1802 773.87,-1802 767.87,-1802 761.87,-1796 761.87,-1790 761.87,-1790 761.87,-1626 761.87,-1626 761.87,-1620 767.87,-1614 773.87,-1614"/>
<text text-anchor="middle" x="844.87" y="-1789.2" font-family="Times,serif" font-size="11.00" fill="gray">Enum</text>
</g>
<g id="clust8" class="cluster"><title>cluster_\LM\AuthAbstractor\Enum\AuthenticationProcess</title>
<path fill="none" stroke="gray" d="M781.87,-1702C781.87,-1702 907.87,-1702 907.87,-1702 913.87,-1702 919.87,-1708 919.87,-1714 919.87,-1714 919.87,-1762 919.87,-1762 919.87,-1768 913.87,-1774 907.87,-1774 907.87,-1774 781.87,-1774 781.87,-1774 775.87,-1774 769.87,-1768 769.87,-1762 769.87,-1762 769.87,-1714 769.87,-1714 769.87,-1708 775.87,-1702 781.87,-1702"/>
<text text-anchor="middle" x="844.87" y="-1761.2" font-family="Times,serif" font-size="11.00" fill="gray">AuthenticationProcess</text>
</g>
<g id="clust9" class="cluster"><title>cluster_\LM\AuthAbstractor\Enum\Persistence</title>
<path fill="none" stroke="gray" d="M810.87,-1622C810.87,-1622 879.87,-1622 879.87,-1622 885.87,-1622 891.87,-1628 891.87,-1634 891.87,-1634 891.87,-1682 891.87,-1682 891.87,-1688 885.87,-1694 879.87,-1694 879.87,-1694 810.87,-1694 810.87,-1694 804.87,-1694 798.87,-1688 798.87,-1682 798.87,-1682 798.87,-1634 798.87,-1634 798.87,-1628 804.87,-1622 810.87,-1622"/>
<text text-anchor="middle" x="845.37" y="-1681.2" font-family="Times,serif" font-size="11.00" fill="gray">Persistence</text>
</g>
<g id="clust10" class="cluster"><title>cluster_\LM\AuthAbstractor\Exception</title>
<path fill="none" stroke="gray" d="M743.37,-2402C743.37,-2402 947.37,-2402 947.37,-2402 953.37,-2402 959.37,-2408 959.37,-2414 959.37,-2414 959.37,-2516 959.37,-2516 959.37,-2522 953.37,-2528 947.37,-2528 947.37,-2528 743.37,-2528 743.37,-2528 737.37,-2528 731.37,-2522 731.37,-2516 731.37,-2516 731.37,-2414 731.37,-2414 731.37,-2408 737.37,-2402 743.37,-2402"/>
<text text-anchor="middle" x="845.37" y="-2515.2" font-family="Times,serif" font-size="11.00" fill="gray">Exception</text>
</g>
<g id="clust11" class="cluster"><title>cluster_\LM\AuthAbstractor\Factory</title>
<path fill="none" stroke="gray" d="M746.37,-1480C746.37,-1480 944.37,-1480 944.37,-1480 950.37,-1480 956.37,-1486 956.37,-1492 956.37,-1492 956.37,-1594 956.37,-1594 956.37,-1600 950.37,-1606 944.37,-1606 944.37,-1606 746.37,-1606 746.37,-1606 740.37,-1606 734.37,-1600 734.37,-1594 734.37,-1594 734.37,-1492 734.37,-1492 734.37,-1486 740.37,-1480 746.37,-1480"/>
<text text-anchor="middle" x="845.37" y="-1593.2" font-family="Times,serif" font-size="11.00" fill="gray">Factory</text>
</g>
<g id="clust12" class="cluster"><title>cluster_\LM\AuthAbstractor\Form</title>
<path fill="none" stroke="gray" d="M748.87,-880C748.87,-880 941.87,-880 941.87,-880 947.87,-880 953.87,-886 953.87,-892 953.87,-892 953.87,-1164 953.87,-1164 953.87,-1170 947.87,-1176 941.87,-1176 941.87,-1176 748.87,-1176 748.87,-1176 742.87,-1176 736.87,-1170 736.87,-1164 736.87,-1164 736.87,-892 736.87,-892 736.87,-886 742.87,-880 748.87,-880"/>
<text text-anchor="middle" x="845.37" y="-1163.2" font-family="Times,serif" font-size="11.00" fill="gray">Form</text>
</g>
<g id="clust13" class="cluster"><title>cluster_\LM\AuthAbstractor\Form\Constraint</title>
<path fill="none" stroke="gray" d="M756.87,-1022C756.87,-1022 933.87,-1022 933.87,-1022 939.87,-1022 945.87,-1028 945.87,-1034 945.87,-1034 945.87,-1136 945.87,-1136 945.87,-1142 939.87,-1148 933.87,-1148 933.87,-1148 756.87,-1148 756.87,-1148 750.87,-1148 744.87,-1142 744.87,-1136 744.87,-1136 744.87,-1034 744.87,-1034 744.87,-1028 750.87,-1022 756.87,-1022"/>
<text text-anchor="middle" x="845.37" y="-1135.2" font-family="Times,serif" font-size="11.00" fill="gray">Constraint</text>
</g>
<g id="clust14" class="cluster"><title>cluster_\LM\AuthAbstractor\Form\Csrf</title>
<path fill="none" stroke="gray" d="M770.37,-888C770.37,-888 920.37,-888 920.37,-888 926.37,-888 932.37,-894 932.37,-900 932.37,-900 932.37,-1002 932.37,-1002 932.37,-1008 926.37,-1014 920.37,-1014 920.37,-1014 770.37,-1014 770.37,-1014 764.37,-1014 758.37,-1008 758.37,-1002 758.37,-1002 758.37,-900 758.37,-900 758.37,-894 764.37,-888 770.37,-888"/>
<text text-anchor="middle" x="845.37" y="-1001.2" font-family="Times,serif" font-size="11.00" fill="gray">Csrf</text>
</g>
<g id="clust15" class="cluster"><title>cluster_\LM\AuthAbstractor\Implementation</title>
<path fill="none" stroke="gray" d="M759.87,-1184C759.87,-1184 930.87,-1184 930.87,-1184 936.87,-1184 942.87,-1190 942.87,-1196 942.87,-1196 942.87,-1460 942.87,-1460 942.87,-1466 936.87,-1472 930.87,-1472 930.87,-1472 759.87,-1472 759.87,-1472 753.87,-1472 747.87,-1466 747.87,-1460 747.87,-1460 747.87,-1196 747.87,-1196 747.87,-1190 753.87,-1184 759.87,-1184"/>
<text text-anchor="middle" x="845.37" y="-1459.2" font-family="Times,serif" font-size="11.00" fill="gray">Implementation</text>
</g>
<g id="clust16" class="cluster"><title>cluster_\LM\AuthAbstractor\Mocker</title>
<path fill="none" stroke="gray" d="M810.87,-800C810.87,-800 879.87,-800 879.87,-800 885.87,-800 891.87,-806 891.87,-812 891.87,-812 891.87,-860 891.87,-860 891.87,-866 885.87,-872 879.87,-872 879.87,-872 810.87,-872 810.87,-872 804.87,-872 798.87,-866 798.87,-860 798.87,-860 798.87,-812 798.87,-812 798.87,-806 804.87,-800 810.87,-800"/>
<text text-anchor="middle" x="845.37" y="-859.2" font-family="Times,serif" font-size="11.00" fill="gray">Mocker</text>
</g>
<g id="clust17" class="cluster"><title>cluster_\LM\AuthAbstractor\Model</title>
<path fill="none" stroke="gray" d="M221.988,-1292C221.988,-1292 639.679,-1292 639.679,-1292 645.679,-1292 651.679,-1298 651.679,-1304 651.679,-1304 651.679,-1784 651.679,-1784 651.679,-1790 645.679,-1796 639.679,-1796 639.679,-1796 221.988,-1796 221.988,-1796 215.988,-1796 209.988,-1790 209.988,-1784 209.988,-1784 209.988,-1304 209.988,-1304 209.988,-1298 215.988,-1292 221.988,-1292"/>
<text text-anchor="middle" x="430.834" y="-1783.2" font-family="Times,serif" font-size="11.00" fill="gray">Model</text>
</g>
<g id="clust18" class="cluster"><title>cluster_\LM\AuthAbstractor\U2f</title>
<path fill="none" stroke="gray" d="M759.87,-612C759.87,-612 930.87,-612 930.87,-612 936.87,-612 942.87,-618 942.87,-624 942.87,-624 942.87,-780 942.87,-780 942.87,-786 936.87,-792 930.87,-792 930.87,-792 759.87,-792 759.87,-792 753.87,-792 747.87,-786 747.87,-780 747.87,-780 747.87,-624 747.87,-624 747.87,-618 753.87,-612 759.87,-612"/>
<text text-anchor="middle" x="845.37" y="-779.2" font-family="Times,serif" font-size="11.00" fill="gray">U2f</text>
</g>
<g id="clust19" class="cluster"><title>cluster_\LM\AuthAbstractor\Validator</title>
<path fill="none" stroke="gray" d="M783.87,-532C783.87,-532 906.87,-532 906.87,-532 912.87,-532 918.87,-538 918.87,-544 918.87,-544 918.87,-592 918.87,-592 918.87,-598 912.87,-604 906.87,-604 906.87,-604 783.87,-604 783.87,-604 777.87,-604 771.87,-598 771.87,-592 771.87,-592 771.87,-544 771.87,-544 771.87,-538 777.87,-532 783.87,-532"/>
<text text-anchor="middle" x="845.37" y="-591.2" font-family="Times,serif" font-size="11.00" fill="gray">Validator</text>
</g>
<g id="clust20" class="cluster"><title>cluster_\LM\Common</title>
<path fill="none" stroke="gray" d="M269.488,-60C269.488,-60 911.87,-60 911.87,-60 917.87,-60 923.87,-66 923.87,-72 923.87,-72 923.87,-504 923.87,-504 923.87,-510 917.87,-516 911.87,-516 911.87,-516 269.488,-516 269.488,-516 263.488,-516 257.488,-510 257.488,-504 257.488,-504 257.488,-72 257.488,-72 257.488,-66 263.488,-60 269.488,-60"/>
<text text-anchor="middle" x="590.679" y="-503.2" font-family="Times,serif" font-size="11.00" fill="gray">Common</text>
</g>
<g id="clust21" class="cluster"><title>cluster_\LM\Common\DataStructure</title>
<path fill="none" stroke="gray" d="M806.87,-416C806.87,-416 883.87,-416 883.87,-416 889.87,-416 895.87,-422 895.87,-428 895.87,-428 895.87,-476 895.87,-476 895.87,-482 889.87,-488 883.87,-488 883.87,-488 806.87,-488 806.87,-488 800.87,-488 794.87,-482 794.87,-476 794.87,-476 794.87,-428 794.87,-428 794.87,-422 800.87,-416 806.87,-416"/>
<text text-anchor="middle" x="845.37" y="-475.2" font-family="Times,serif" font-size="11.00" fill="gray">DataStructure</text>
</g>
<g id="clust22" class="cluster"><title>cluster_\LM\Common\Enum</title>
<path fill="none" stroke="gray" d="M277.488,-336C277.488,-336 869.87,-336 869.87,-336 875.87,-336 881.87,-342 881.87,-348 881.87,-348 881.87,-396 881.87,-396 881.87,-402 875.87,-408 869.87,-408 869.87,-408 277.488,-408 277.488,-408 271.488,-408 265.488,-402 265.488,-396 265.488,-396 265.488,-348 265.488,-348 265.488,-342 271.488,-336 277.488,-336"/>
<text text-anchor="middle" x="573.679" y="-395.2" font-family="Times,serif" font-size="11.00" fill="gray">Enum</text>
</g>
<g id="clust23" class="cluster"><title>cluster_\LM\Common\Model</title>
<path fill="none" stroke="gray" d="M797.37,-148C797.37,-148 893.37,-148 893.37,-148 899.37,-148 905.37,-154 905.37,-160 905.37,-160 905.37,-316 905.37,-316 905.37,-322 899.37,-328 893.37,-328 893.37,-328 797.37,-328 797.37,-328 791.37,-328 785.37,-322 785.37,-316 785.37,-316 785.37,-160 785.37,-160 785.37,-154 791.37,-148 797.37,-148"/>
<text text-anchor="middle" x="845.37" y="-315.2" font-family="Times,serif" font-size="11.00" fill="gray">Model</text>
</g>
<g id="clust24" class="cluster"><title>cluster_\LM\Common\Type</title>
<path fill="none" stroke="gray" d="M786.87,-68C786.87,-68 903.87,-68 903.87,-68 909.87,-68 915.87,-74 915.87,-80 915.87,-80 915.87,-128 915.87,-128 915.87,-134 909.87,-140 903.87,-140 903.87,-140 786.87,-140 786.87,-140 780.87,-140 774.87,-134 774.87,-128 774.87,-128 774.87,-80 774.87,-80 774.87,-74 780.87,-68 786.87,-68"/>
<text text-anchor="middle" x="845.37" y="-127.2" font-family="Times,serif" font-size="11.00" fill="gray">Type</text>
</g>
<g id="clust25" class="cluster"><title>cluster_Global\Symfony</title>
<path fill="none" stroke="gray" d="M442.988,-2636C442.988,-2636 672.37,-2636 672.37,-2636 678.37,-2636 684.37,-2642 684.37,-2648 684.37,-2648 684.37,-2768 684.37,-2768 684.37,-2774 678.37,-2780 672.37,-2780 672.37,-2780 442.988,-2780 442.988,-2780 436.988,-2780 430.988,-2774 430.988,-2768 430.988,-2768 430.988,-2648 430.988,-2648 430.988,-2642 436.988,-2636 442.988,-2636"/>
<text text-anchor="middle" x="557.679" y="-2767.2" font-family="Times,serif" font-size="11.00" fill="gray">Symfony</text>
</g>
<g id="clust26" class="cluster"><title>cluster_Global\Symfony\Component</title>
<path fill="none" stroke="gray" d="M450.988,-2644C450.988,-2644 664.37,-2644 664.37,-2644 670.37,-2644 676.37,-2650 676.37,-2656 676.37,-2656 676.37,-2740 676.37,-2740 676.37,-2746 670.37,-2752 664.37,-2752 664.37,-2752 450.988,-2752 450.988,-2752 444.988,-2752 438.988,-2746 438.988,-2740 438.988,-2740 438.988,-2656 438.988,-2656 438.988,-2650 444.988,-2644 450.988,-2644"/>
<text text-anchor="middle" x="557.679" y="-2739.2" font-family="Times,serif" font-size="11.00" fill="gray">Component</text>
</g>
<g id="clust27" class="cluster"><title>cluster_Global\Symfony\Component\Validator</title>
<path fill="none" stroke="gray" d="M458.988,-2652C458.988,-2652 656.37,-2652 656.37,-2652 662.37,-2652 668.37,-2658 668.37,-2664 668.37,-2664 668.37,-2712 668.37,-2712 668.37,-2718 662.37,-2724 656.37,-2724 656.37,-2724 458.988,-2724 458.988,-2724 452.988,-2724 446.988,-2718 446.988,-2712 446.988,-2712 446.988,-2664 446.988,-2664 446.988,-2658 452.988,-2652 458.988,-2652"/>
<text text-anchor="middle" x="557.679" y="-2711.2" font-family="Times,serif" font-size="11.00" fill="gray">Validator</text>
</g>
<!-- \\LM\\AuthAbstractor\\Challenge\\ChallengeResponse -->
<g id="node1" class="node"><title>\\LM\\AuthAbstractor\\Challenge\\ChallengeResponse</title>
<polygon fill="none" stroke="black" points="910.87,-2366 779.87,-2366 779.87,-2330 910.87,-2330 910.87,-2366"/>
<text text-anchor="middle" x="845.37" y="-2345.2" font-family="Courier,monospace" font-size="11.00">ChallengeResponse</text>
</g>
<!-- \\LM\\AuthAbstractor\\Challenge\\CredentialChallenge -->
<g id="node2" class="node"><title>\\LM\\AuthAbstractor\\Challenge\\CredentialChallenge</title>
<polygon fill="none" stroke="black" points="917.87,-2204 772.87,-2204 772.87,-2168 917.87,-2168 917.87,-2204"/>
<text text-anchor="middle" x="845.37" y="-2183.2" font-family="Courier,monospace" font-size="11.00">CredentialChallenge</text>
</g>
<!-- \\LM\\AuthAbstractor\\Challenge\\IChallenge -->
<g id="node9" class="node"><title>\\LM\\AuthAbstractor\\Challenge\\IChallenge</title>
<polygon fill="none" stroke="black" points="599.679,-2150 515.679,-2150 515.679,-2114 599.679,-2114 599.679,-2150"/>
<text text-anchor="middle" x="557.679" y="-2129.2" font-family="Courier,monospace" font-size="11.00">IChallenge</text>
</g>
<!-- \\LM\\AuthAbstractor\\Challenge\\CredentialChallenge&#45;&gt;\\LM\\AuthAbstractor\\Challenge\\IChallenge -->
<g id="edge1" class="edge"><title>\\LM\\AuthAbstractor\\Challenge\\CredentialChallenge&#45;&gt;\\LM\\AuthAbstractor\\Challenge\\IChallenge</title>
<path fill="none" stroke="black" stroke-dasharray="1,5" d="M772.759,-2171.29C745.162,-2165.73 713.327,-2159.43 684.37,-2154 659.918,-2149.42 632.732,-2144.62 609.915,-2140.68"/>
<polygon fill="none" stroke="black" points="610.214,-2137.18 599.765,-2138.93 609.027,-2144.08 610.214,-2137.18"/>
</g>
<!-- \\LM\\AuthAbstractor\\Challenge\\CredentialRegistrationChallenge -->
<g id="node3" class="node"><title>\\LM\\AuthAbstractor\\Challenge\\CredentialRegistrationChallenge</title>
<polygon fill="none" stroke="black" points="958.37,-2150 732.37,-2150 732.37,-2114 958.37,-2114 958.37,-2150"/>
<text text-anchor="middle" x="845.37" y="-2129.2" font-family="Courier,monospace" font-size="11.00">CredentialRegistrationChallenge</text>
</g>
<!-- \\LM\\AuthAbstractor\\Challenge\\CredentialRegistrationChallenge&#45;&gt;\\LM\\AuthAbstractor\\Challenge\\IChallenge -->
<g id="edge2" class="edge"><title>\\LM\\AuthAbstractor\\Challenge\\CredentialRegistrationChallenge&#45;&gt;\\LM\\AuthAbstractor\\Challenge\\IChallenge</title>
<path fill="none" stroke="black" stroke-dasharray="1,5" d="M732.278,-2132C690.06,-2132 644.081,-2132 610.054,-2132"/>
<polygon fill="none" stroke="black" points="609.895,-2128.5 599.895,-2132 609.895,-2135.5 609.895,-2128.5"/>
</g>
<!-- \\LM\\AuthAbstractor\\Challenge\\ExistingUsernameChallenge -->
<g id="node4" class="node"><title>\\LM\\AuthAbstractor\\Challenge\\ExistingUsernameChallenge</title>
<polygon fill="none" stroke="black" points="937.87,-2096 752.87,-2096 752.87,-2060 937.87,-2060 937.87,-2096"/>
<text text-anchor="middle" x="845.37" y="-2075.2" font-family="Courier,monospace" font-size="11.00">ExistingUsernameChallenge</text>
</g>
<!-- \\LM\\AuthAbstractor\\Challenge\\ExistingUsernameChallenge&#45;&gt;\\LM\\AuthAbstractor\\Challenge\\IChallenge -->
<g id="edge3" class="edge"><title>\\LM\\AuthAbstractor\\Challenge\\ExistingUsernameChallenge&#45;&gt;\\LM\\AuthAbstractor\\Challenge\\IChallenge</title>
<path fill="none" stroke="black" stroke-dasharray="1,5" d="M752.797,-2095.31C705.503,-2104.25 649.563,-2114.82 609.913,-2122.32"/>
<polygon fill="none" stroke="black" points="609.121,-2118.9 599.945,-2124.2 610.421,-2125.78 609.121,-2118.9"/>
</g>
<!-- \\LM\\AuthAbstractor\\Challenge\\PasswordChallenge -->
<g id="node5" class="node"><title>\\LM\\AuthAbstractor\\Challenge\\PasswordChallenge</title>
<polygon fill="none" stroke="black" points="910.87,-2042 779.87,-2042 779.87,-2006 910.87,-2006 910.87,-2042"/>
<text text-anchor="middle" x="845.37" y="-2021.2" font-family="Courier,monospace" font-size="11.00">PasswordChallenge</text>
</g>
<!-- \\LM\\AuthAbstractor\\Challenge\\PasswordChallenge&#45;&gt;\\LM\\AuthAbstractor\\Challenge\\IChallenge -->
<g id="edge4" class="edge"><title>\\LM\\AuthAbstractor\\Challenge\\PasswordChallenge&#45;&gt;\\LM\\AuthAbstractor\\Challenge\\IChallenge</title>
<path fill="none" stroke="black" stroke-dasharray="1,5" d="M779.769,-2037.04C763.767,-2040.92 746.792,-2045.6 731.37,-2051 685.514,-2067.04 635.501,-2091.3 601.156,-2109.09"/>
<polygon fill="none" stroke="black" points="599.145,-2106.19 591.901,-2113.92 602.386,-2112.39 599.145,-2106.19"/>
</g>
<!-- \\LM\\AuthAbstractor\\Challenge\\PasswordUpdateChallenge -->
<g id="node6" class="node"><title>\\LM\\AuthAbstractor\\Challenge\\PasswordUpdateChallenge</title>
<polygon fill="none" stroke="black" points="931.37,-1988 759.37,-1988 759.37,-1952 931.37,-1952 931.37,-1988"/>
<text text-anchor="middle" x="845.37" y="-1967.2" font-family="Courier,monospace" font-size="11.00">PasswordUpdateChallenge</text>
</g>
<!-- \\LM\\AuthAbstractor\\Challenge\\PasswordUpdateChallenge&#45;&gt;\\LM\\AuthAbstractor\\Challenge\\IChallenge -->
<g id="edge5" class="edge"><title>\\LM\\AuthAbstractor\\Challenge\\PasswordUpdateChallenge&#45;&gt;\\LM\\AuthAbstractor\\Challenge\\IChallenge</title>
<path fill="none" stroke="black" stroke-dasharray="1,5" d="M759.072,-1986.18C749.516,-1989.22 740.092,-1992.8 731.37,-1997 672.902,-2025.17 615.693,-2075.72 584.015,-2106.33"/>
<polygon fill="none" stroke="black" points="581.226,-2104.16 576.526,-2113.66 586.122,-2109.17 581.226,-2104.16"/>
</g>
<!-- \\LM\\AuthAbstractor\\Challenge\\U2fChallenge -->
<g id="node7" class="node"><title>\\LM\\AuthAbstractor\\Challenge\\U2fChallenge</title>
<polygon fill="none" stroke="black" points="894.37,-2312 796.37,-2312 796.37,-2276 894.37,-2276 894.37,-2312"/>
<text text-anchor="middle" x="845.37" y="-2291.2" font-family="Courier,monospace" font-size="11.00">U2fChallenge</text>
</g>
<!-- \\LM\\AuthAbstractor\\Challenge\\U2fChallenge&#45;&gt;\\LM\\AuthAbstractor\\Challenge\\IChallenge -->
<g id="edge6" class="edge"><title>\\LM\\AuthAbstractor\\Challenge\\U2fChallenge&#45;&gt;\\LM\\AuthAbstractor\\Challenge\\IChallenge</title>
<path fill="none" stroke="black" stroke-dasharray="1,5" d="M796.211,-2292.26C774.267,-2289.2 749.258,-2282.24 731.37,-2267 689.964,-2231.73 726.837,-2187.99 684.37,-2154 663.62,-2137.39 634.715,-2131.52 609.854,-2129.97"/>
<polygon fill="none" stroke="black" points="609.977,-2126.47 599.841,-2129.55 609.689,-2133.46 609.977,-2126.47"/>
</g>
<!-- \\LM\\AuthAbstractor\\Challenge\\U2fRegistrationChallenge -->
<g id="node8" class="node"><title>\\LM\\AuthAbstractor\\Challenge\\U2fRegistrationChallenge</title>
<polygon fill="none" stroke="black" points="934.87,-2258 755.87,-2258 755.87,-2222 934.87,-2222 934.87,-2258"/>
<text text-anchor="middle" x="845.37" y="-2237.2" font-family="Courier,monospace" font-size="11.00">U2fRegistrationChallenge</text>
</g>
<!-- \\LM\\AuthAbstractor\\Challenge\\U2fRegistrationChallenge&#45;&gt;\\LM\\AuthAbstractor\\Challenge\\IChallenge -->
<g id="edge7" class="edge"><title>\\LM\\AuthAbstractor\\Challenge\\U2fRegistrationChallenge&#45;&gt;\\LM\\AuthAbstractor\\Challenge\\IChallenge</title>
<path fill="none" stroke="black" stroke-dasharray="1,5" d="M755.645,-2224.92C747.113,-2221.68 738.86,-2217.76 731.37,-2213 703.079,-2195.01 713.199,-2171.11 684.37,-2154 662.035,-2140.74 633.792,-2135.01 609.739,-2132.7"/>
<polygon fill="none" stroke="black" points="609.963,-2129.2 599.717,-2131.9 609.409,-2136.18 609.963,-2129.2"/>
</g>
<!-- \\LM\\AuthAbstractor\\Configuration\\IApplicationConfiguration -->
<g id="node10" class="node"><title>\\LM\\AuthAbstractor\\Configuration\\IApplicationConfiguration</title>
<polygon fill="none" stroke="black" points="650.179,-1228 465.179,-1228 465.179,-1192 650.179,-1192 650.179,-1228"/>
<text text-anchor="middle" x="557.679" y="-1207.2" font-family="Courier,monospace" font-size="11.00">IApplicationConfiguration</text>
</g>
<!-- \\LM\\AuthAbstractor\\Controller\\AuthenticationKernel -->
<g id="node11" class="node"><title>\\LM\\AuthAbstractor\\Controller\\AuthenticationKernel</title>
<polygon fill="none" stroke="black" points="921.37,-1908 769.37,-1908 769.37,-1872 921.37,-1872 921.37,-1908"/>
<text text-anchor="middle" x="845.37" y="-1887.2" font-family="Courier,monospace" font-size="11.00">AuthenticationKernel</text>
</g>
<!-- \\LM\\AuthAbstractor\\Model\\IAuthenticationKernel -->
<g id="node35" class="node"><title>\\LM\\AuthAbstractor\\Model\\IAuthenticationKernel</title>
<polygon fill="none" stroke="black" points="636.679,-1768 478.679,-1768 478.679,-1732 636.679,-1732 636.679,-1768"/>
<text text-anchor="middle" x="557.679" y="-1747.2" font-family="Courier,monospace" font-size="11.00">IAuthenticationKernel</text>
</g>
<!-- \\LM\\AuthAbstractor\\Controller\\AuthenticationKernel&#45;&gt;\\LM\\AuthAbstractor\\Model\\IAuthenticationKernel -->
<g id="edge8" class="edge"><title>\\LM\\AuthAbstractor\\Controller\\AuthenticationKernel&#45;&gt;\\LM\\AuthAbstractor\\Model\\IAuthenticationKernel</title>
<path fill="none" stroke="black" stroke-dasharray="1,5" d="M769.331,-1875.92C756.418,-1872.42 743.317,-1868.15 731.37,-1863 677.379,-1839.73 621.65,-1799.86 588.595,-1774.24"/>
<polygon fill="none" stroke="black" points="590.725,-1771.46 580.694,-1768.05 586.408,-1776.97 590.725,-1771.46"/>
</g>
<!-- \\LM\\AuthAbstractor\\Controller\\AuthenticationProcessHandler -->
<g id="node12" class="node"><title>\\LM\\AuthAbstractor\\Controller\\AuthenticationProcessHandler</title>
<polygon fill="none" stroke="black" points="948.37,-1854 742.37,-1854 742.37,-1818 948.37,-1818 948.37,-1854"/>
<text text-anchor="middle" x="845.37" y="-1833.2" font-family="Courier,monospace" font-size="11.00">AuthenticationProcessHandler</text>
</g>
<!-- \\LM\\AuthAbstractor\\Enum\\AuthenticationProcess\\Status -->
<g id="node13" class="node"><title>\\LM\\AuthAbstractor\\Enum\\AuthenticationProcess\\Status</title>
<polygon fill="none" stroke="black" points="873.87,-1746 816.87,-1746 816.87,-1710 873.87,-1710 873.87,-1746"/>
<text text-anchor="middle" x="845.37" y="-1725.2" font-family="Courier,monospace" font-size="11.00">Status</text>
</g>
<!-- \\LM\\Common\\Enum\\AbstractEnum -->
<g id="node44" class="node"><title>\\LM\\Common\\Enum\\AbstractEnum</title>
<polygon fill="none" stroke="black" points="606.679,-380 508.679,-380 508.679,-344 606.679,-344 606.679,-380"/>
<text text-anchor="start" x="523.679" y="-365.2" font-family="Courier,monospace" font-size="11.00">«abstract»</text>
<text text-anchor="start" x="516.679" y="-353.2" font-family="Courier,monospace" font-size="11.00">AbstractEnum</text>
</g>
<!-- \\LM\\AuthAbstractor\\Enum\\AuthenticationProcess\\Status&#45;&gt;\\LM\\Common\\Enum\\AbstractEnum -->
<g id="edge9" class="edge"><title>\\LM\\AuthAbstractor\\Enum\\AuthenticationProcess\\Status&#45;&gt;\\LM\\Common\\Enum\\AbstractEnum</title>
<path fill="none" stroke="black" d="M816.462,-1728.95C790.249,-1728.19 752.052,-1722.51 731.37,-1698 656.83,-1609.66 698.376,-1294.73 684.37,-1180 646.409,-869.036 581.936,-494.401 563.648,-390.119"/>
<polygon fill="none" stroke="black" points="567.062,-389.322 561.883,-380.079 560.167,-390.534 567.062,-389.322"/>
</g>
<!-- \\LM\\AuthAbstractor\\Enum\\Persistence\\Operation -->
<g id="node14" class="node"><title>\\LM\\AuthAbstractor\\Enum\\Persistence\\Operation</title>
<polygon fill="none" stroke="black" points="883.87,-1666 806.87,-1666 806.87,-1630 883.87,-1630 883.87,-1666"/>
<text text-anchor="middle" x="845.37" y="-1645.2" font-family="Courier,monospace" font-size="11.00">Operation</text>
</g>
<!-- \\LM\\AuthAbstractor\\Enum\\Persistence\\Operation&#45;&gt;\\LM\\Common\\Enum\\AbstractEnum -->
<g id="edge10" class="edge"><title>\\LM\\AuthAbstractor\\Enum\\Persistence\\Operation&#45;&gt;\\LM\\Common\\Enum\\AbstractEnum</title>
<path fill="none" stroke="black" d="M806.711,-1645.53C781.4,-1641.76 749.472,-1632.49 731.37,-1610 671.105,-1535.11 696.895,-1275.31 684.37,-1180 643.552,-869.398 581.089,-494.508 563.46,-390.143"/>
<polygon fill="none" stroke="black" points="566.879,-389.37 561.759,-380.094 559.977,-390.538 566.879,-389.37"/>
</g>
<!-- \\LM\\AuthAbstractor\\Exception\\FinishedProcessException -->
<g id="node15" class="node"><title>\\LM\\AuthAbstractor\\Exception\\FinishedProcessException</title>
<polygon fill="none" stroke="black" points="934.87,-2500 755.87,-2500 755.87,-2464 934.87,-2464 934.87,-2500"/>
<text text-anchor="middle" x="845.37" y="-2479.2" font-family="Courier,monospace" font-size="11.00">FinishedProcessException</text>
</g>
<!-- Exception -->
<g id="node52" class="node"><title>Exception</title>
<ellipse fill="none" stroke="black" cx="557.679" cy="-2610" rx="57.6901" ry="18"/>
<text text-anchor="middle" x="557.679" y="-2606.3" font-family="Times,serif" font-size="14.00" fill="gray">Exception</text>
</g>
<!-- \\LM\\AuthAbstractor\\Exception\\FinishedProcessException&#45;&gt;Exception -->
<g id="edge11" class="edge"><title>\\LM\\AuthAbstractor\\Exception\\FinishedProcessException&#45;&gt;Exception</title>
<path fill="none" stroke="black" d="M804.044,-2500.07C750.357,-2524.12 655.837,-2566.47 601.108,-2590.99"/>
<polygon fill="none" stroke="black" points="599.393,-2587.92 591.698,-2595.21 602.255,-2594.31 599.393,-2587.92"/>
</g>
<!-- \\LM\\AuthAbstractor\\Exception\\NoRegisteredU2fTokenException -->
<g id="node16" class="node"><title>\\LM\\AuthAbstractor\\Exception\\NoRegisteredU2fTokenException</title>
<polygon fill="none" stroke="black" points="951.37,-2446 739.37,-2446 739.37,-2410 951.37,-2410 951.37,-2446"/>
<text text-anchor="middle" x="845.37" y="-2425.2" font-family="Courier,monospace" font-size="11.00">NoRegisteredU2fTokenException</text>
</g>
<!-- \\LM\\AuthAbstractor\\Exception\\NoRegisteredU2fTokenException&#45;&gt;Exception -->
<g id="edge12" class="edge"><title>\\LM\\AuthAbstractor\\Exception\\NoRegisteredU2fTokenException&#45;&gt;Exception</title>
<path fill="none" stroke="black" d="M751.693,-2446.08C744.658,-2448.67 737.801,-2451.63 731.37,-2455 667.953,-2488.26 609.347,-2550.06 579.444,-2584.73"/>
<polygon fill="none" stroke="black" points="576.633,-2582.63 572.818,-2592.52 581.964,-2587.17 576.633,-2582.63"/>
</g>
<!-- \\LM\\AuthAbstractor\\Factory\\AuthenticationProcessFactory -->
<g id="node17" class="node"><title>\\LM\\AuthAbstractor\\Factory\\AuthenticationProcessFactory</title>
<polygon fill="none" stroke="black" points="948.37,-1578 742.37,-1578 742.37,-1542 948.37,-1542 948.37,-1578"/>
<text text-anchor="middle" x="845.37" y="-1557.2" font-family="Courier,monospace" font-size="11.00">AuthenticationProcessFactory</text>
</g>
<!-- \\LM\\AuthAbstractor\\Factory\\U2fRegistrationFactory -->
<g id="node18" class="node"><title>\\LM\\AuthAbstractor\\Factory\\U2fRegistrationFactory</title>
<polygon fill="none" stroke="black" points="927.87,-1524 762.87,-1524 762.87,-1488 927.87,-1488 927.87,-1524"/>
<text text-anchor="middle" x="845.37" y="-1503.2" font-family="Courier,monospace" font-size="11.00">U2fRegistrationFactory</text>
</g>
<!-- \\LM\\AuthAbstractor\\Form\\Constraint\\ValidNewPassword -->
<g id="node19" class="node"><title>\\LM\\AuthAbstractor\\Form\\Constraint\\ValidNewPassword</title>
<polygon fill="none" stroke="black" points="907.87,-1066 782.87,-1066 782.87,-1030 907.87,-1030 907.87,-1066"/>
<text text-anchor="middle" x="845.37" y="-1045.2" font-family="Courier,monospace" font-size="11.00">ValidNewPassword</text>
</g>
<!-- Constraint -->
<g id="node54" class="node"><title>Constraint</title>
<ellipse fill="none" stroke="black" cx="557.679" cy="-18" rx="60.3893" ry="18"/>
<text text-anchor="middle" x="557.679" y="-14.3" font-family="Times,serif" font-size="14.00">Constraint</text>
</g>
<!-- \\LM\\AuthAbstractor\\Form\\Constraint\\ValidNewPassword&#45;&gt;Constraint -->
<g id="edge13" class="edge"><title>\\LM\\AuthAbstractor\\Form\\Constraint\\ValidNewPassword&#45;&gt;Constraint</title>
<path fill="none" stroke="black" d="M782.837,-1045.36C763.556,-1041.34 744.03,-1033.34 731.37,-1018 682.747,-959.069 701.385,-406.482 684.37,-332 659.011,-220.986 599.943,-97.9734 572.791,-44.8479"/>
<polygon fill="none" stroke="black" points="575.8,-43.046 568.108,-35.7602 569.578,-46.2526 575.8,-43.046"/>
</g>
<!-- \\LM\\AuthAbstractor\\Form\\Constraint\\ValidNewPasswordValidator -->
<g id="node20" class="node"><title>\\LM\\AuthAbstractor\\Form\\Constraint\\ValidNewPasswordValidator</title>
<polygon fill="none" stroke="black" points="937.87,-1120 752.87,-1120 752.87,-1084 937.87,-1084 937.87,-1120"/>
<text text-anchor="middle" x="845.37" y="-1099.2" font-family="Courier,monospace" font-size="11.00">ValidNewPasswordValidator</text>
</g>
<!-- ConstraintValidator -->
<g id="node51" class="node"><title>ConstraintValidator</title>
<ellipse fill="none" stroke="black" cx="557.679" cy="-2678" rx="102.882" ry="18"/>
<text text-anchor="middle" x="557.679" y="-2674.3" font-family="Times,serif" font-size="14.00" fill="gray">ConstraintValidator</text>
</g>
<!-- \\LM\\AuthAbstractor\\Form\\Constraint\\ValidNewPasswordValidator&#45;&gt;ConstraintValidator -->
<g id="edge14" class="edge"><title>\\LM\\AuthAbstractor\\Form\\Constraint\\ValidNewPasswordValidator&#45;&gt;ConstraintValidator</title>
<path fill="none" stroke="black" d="M800.549,-1120.02C775.56,-1132.8 746.321,-1152.58 731.37,-1180 652.815,-1324.06 791.906,-2532.07 684.37,-2656 679.479,-2661.64 673.699,-2666.17 667.348,-2669.8"/>
<polygon fill="none" stroke="black" points="665.808,-2666.65 658.364,-2674.19 668.885,-2672.94 665.808,-2666.65"/>
</g>
<!-- \\LM\\AuthAbstractor\\Form\\Csrf\\TokenStorage -->
<g id="node21" class="node"><title>\\LM\\AuthAbstractor\\Form\\Csrf\\TokenStorage</title>
<polygon fill="none" stroke="black" points="894.37,-986 796.37,-986 796.37,-950 894.37,-950 894.37,-986"/>
<text text-anchor="middle" x="845.37" y="-965.2" font-family="Courier,monospace" font-size="11.00">TokenStorage</text>
</g>
<!-- \\LM\\AuthAbstractor\\Form\\Csrf\\TokenStorageInterface -->
<g id="node22" class="node"><title>\\LM\\AuthAbstractor\\Form\\Csrf\\TokenStorageInterface</title>
<polygon fill="none" stroke="black" points="924.37,-932 766.37,-932 766.37,-896 924.37,-896 924.37,-932"/>
<text text-anchor="middle" x="845.37" y="-911.2" font-family="Courier,monospace" font-size="11.00">TokenStorageInterface</text>
</g>
<!-- \\LM\\AuthAbstractor\\Implementation\\ApplicationConfiguration -->
<g id="node23" class="node"><title>\\LM\\AuthAbstractor\\Implementation\\ApplicationConfiguration</title>
<polygon fill="none" stroke="black" points="934.87,-1228 755.87,-1228 755.87,-1192 934.87,-1192 934.87,-1228"/>
<text text-anchor="middle" x="845.37" y="-1207.2" font-family="Courier,monospace" font-size="11.00">ApplicationConfiguration</text>
</g>
<!-- \\LM\\AuthAbstractor\\Implementation\\ApplicationConfiguration&#45;&gt;\\LM\\AuthAbstractor\\Configuration\\IApplicationConfiguration -->
<g id="edge15" class="edge"><title>\\LM\\AuthAbstractor\\Implementation\\ApplicationConfiguration&#45;&gt;\\LM\\AuthAbstractor\\Configuration\\IApplicationConfiguration</title>
<path fill="none" stroke="black" stroke-dasharray="1,5" d="M755.542,-1210C725.521,-1210 691.766,-1210 660.798,-1210"/>
<polygon fill="none" stroke="black" points="660.413,-1206.5 650.412,-1210 660.412,-1213.5 660.413,-1206.5"/>
</g>
<!-- \\LM\\AuthAbstractor\\Implementation\\Callback -->
<g id="node24" class="node"><title>\\LM\\AuthAbstractor\\Implementation\\Callback</title>
<polygon fill="none" stroke="black" points="880.87,-1390 809.87,-1390 809.87,-1354 880.87,-1354 880.87,-1390"/>
<text text-anchor="middle" x="845.37" y="-1369.2" font-family="Courier,monospace" font-size="11.00">Callback</text>
</g>
<!-- \\LM\\AuthAbstractor\\Model\\IAuthenticationCallback -->
<g id="node34" class="node"><title>\\LM\\AuthAbstractor\\Model\\IAuthenticationCallback</title>
<polygon fill="none" stroke="black" points="643.679,-1390 471.679,-1390 471.679,-1354 643.679,-1354 643.679,-1390"/>
<text text-anchor="middle" x="557.679" y="-1369.2" font-family="Courier,monospace" font-size="11.00">IAuthenticationCallback</text>
</g>
<!-- \\LM\\AuthAbstractor\\Implementation\\Callback&#45;&gt;\\LM\\AuthAbstractor\\Model\\IAuthenticationCallback -->
<g id="edge16" class="edge"><title>\\LM\\AuthAbstractor\\Implementation\\Callback&#45;&gt;\\LM\\AuthAbstractor\\Model\\IAuthenticationCallback</title>
<path fill="none" stroke="black" stroke-dasharray="1,5" d="M809.625,-1372C771.207,-1372 707.666,-1372 654.138,-1372"/>
<polygon fill="none" stroke="black" points="653.922,-1368.5 643.922,-1372 653.922,-1375.5 653.922,-1368.5"/>
</g>
<!-- \\LM\\AuthAbstractor\\Implementation\\Member -->
<g id="node25" class="node"><title>\\LM\\AuthAbstractor\\Implementation\\Member</title>
<polygon fill="none" stroke="black" points="873.87,-1336 816.87,-1336 816.87,-1300 873.87,-1300 873.87,-1336"/>
<text text-anchor="middle" x="845.37" y="-1315.2" font-family="Courier,monospace" font-size="11.00">Member</text>
</g>
<!-- \\LM\\AuthAbstractor\\Model\\IMember -->
<g id="node37" class="node"><title>\\LM\\AuthAbstractor\\Model\\IMember</title>
<polygon fill="none" stroke="black" points="589.679,-1336 525.679,-1336 525.679,-1300 589.679,-1300 589.679,-1336"/>
<text text-anchor="middle" x="557.679" y="-1315.2" font-family="Courier,monospace" font-size="11.00">IMember</text>
</g>
<!-- \\LM\\AuthAbstractor\\Implementation\\Member&#45;&gt;\\LM\\AuthAbstractor\\Model\\IMember -->
<g id="edge17" class="edge"><title>\\LM\\AuthAbstractor\\Implementation\\Member&#45;&gt;\\LM\\AuthAbstractor\\Model\\IMember</title>
<path fill="none" stroke="black" stroke-dasharray="1,5" d="M816.717,-1318C766.254,-1318 658.999,-1318 599.894,-1318"/>
<polygon fill="none" stroke="black" points="599.792,-1314.5 589.792,-1318 599.792,-1321.5 599.792,-1314.5"/>
</g>
<!-- \\LM\\AuthAbstractor\\Implementation\\TestingTokenStorage -->
<g id="node26" class="node"><title>\\LM\\AuthAbstractor\\Implementation\\TestingTokenStorage</title>
<polygon fill="none" stroke="black" points="917.87,-1282 772.87,-1282 772.87,-1246 917.87,-1246 917.87,-1282"/>
<text text-anchor="middle" x="845.37" y="-1261.2" font-family="Courier,monospace" font-size="11.00">TestingTokenStorage</text>
</g>
<!-- \\LM\\AuthAbstractor\\Implementation\\U2fRegistration -->
<g id="node27" class="node"><title>\\LM\\AuthAbstractor\\Implementation\\U2fRegistration</title>
<polygon fill="none" stroke="black" points="904.37,-1444 786.37,-1444 786.37,-1408 904.37,-1408 904.37,-1444"/>
<text text-anchor="middle" x="845.37" y="-1423.2" font-family="Courier,monospace" font-size="11.00">U2fRegistration</text>
</g>
<!-- \\LM\\AuthAbstractor\\Model\\IU2fRegistration -->
<g id="node38" class="node"><title>\\LM\\AuthAbstractor\\Model\\IU2fRegistration</title>
<polygon fill="none" stroke="black" points="620.179,-1498 495.179,-1498 495.179,-1462 620.179,-1462 620.179,-1498"/>
<text text-anchor="middle" x="557.679" y="-1477.2" font-family="Courier,monospace" font-size="11.00">IU2fRegistration</text>
</g>
<!-- \\LM\\AuthAbstractor\\Implementation\\U2fRegistration&#45;&gt;\\LM\\AuthAbstractor\\Model\\IU2fRegistration -->
<g id="edge18" class="edge"><title>\\LM\\AuthAbstractor\\Implementation\\U2fRegistration&#45;&gt;\\LM\\AuthAbstractor\\Model\\IU2fRegistration</title>
<path fill="none" stroke="black" stroke-dasharray="1,5" d="M786.212,-1436.99C741.127,-1445.51 678.427,-1457.37 630.26,-1466.47"/>
<polygon fill="none" stroke="black" points="629.39,-1463.07 620.214,-1468.37 630.69,-1469.95 629.39,-1463.07"/>
</g>
<!-- \\LM\\AuthAbstractor\\Mocker\\U2fMocker -->
<g id="node28" class="node"><title>\\LM\\AuthAbstractor\\Mocker\\U2fMocker</title>
<polygon fill="none" stroke="black" points="883.87,-844 806.87,-844 806.87,-808 883.87,-808 883.87,-844"/>
<text text-anchor="middle" x="845.37" y="-823.2" font-family="Courier,monospace" font-size="11.00">U2fMocker</text>
</g>
<!-- \\LM\\AuthAbstractor\\Model\\AuthenticationProcess -->
<g id="node29" class="node"><title>\\LM\\AuthAbstractor\\Model\\AuthenticationProcess</title>
<polygon fill="none" stroke="black" points="636.679,-1444 478.679,-1444 478.679,-1408 636.679,-1408 636.679,-1444"/>
<text text-anchor="middle" x="557.679" y="-1423.2" font-family="Courier,monospace" font-size="11.00">AuthenticationProcess</text>
</g>
<!-- \\LM\\AuthAbstractor\\Model\\IAuthenticationProcess -->
<g id="node36" class="node"><title>\\LM\\AuthAbstractor\\Model\\IAuthenticationProcess</title>
<polygon fill="none" stroke="black" points="382.988,-1444 217.988,-1444 217.988,-1408 382.988,-1408 382.988,-1444"/>
<text text-anchor="middle" x="300.488" y="-1423.2" font-family="Courier,monospace" font-size="11.00">IAuthenticationProcess</text>
</g>
<!-- \\LM\\AuthAbstractor\\Model\\AuthenticationProcess&#45;&gt;\\LM\\AuthAbstractor\\Model\\IAuthenticationProcess -->
<g id="edge19" class="edge"><title>\\LM\\AuthAbstractor\\Model\\AuthenticationProcess&#45;&gt;\\LM\\AuthAbstractor\\Model\\IAuthenticationProcess</title>
<path fill="none" stroke="black" stroke-dasharray="1,5" d="M478.379,-1426C451.499,-1426 421.169,-1426 393.314,-1426"/>
<polygon fill="none" stroke="black" points="393.174,-1422.5 383.174,-1426 393.174,-1429.5 393.174,-1422.5"/>
</g>
<!-- \\LM\\AuthAbstractor\\Model\\AuthentifierResponse -->
<g id="node30" class="node"><title>\\LM\\AuthAbstractor\\Model\\AuthentifierResponse</title>
<polygon fill="none" stroke="black" points="633.679,-1714 481.679,-1714 481.679,-1678 633.679,-1678 633.679,-1714"/>
<text text-anchor="middle" x="557.679" y="-1693.2" font-family="Courier,monospace" font-size="11.00">AuthentifierResponse</text>
</g>
<!-- \\LM\\AuthAbstractor\\Model\\ChallengeDefinition -->
<g id="node31" class="node"><title>\\LM\\AuthAbstractor\\Model\\ChallengeDefinition</title>
<polygon fill="none" stroke="black" points="630.179,-1660 485.179,-1660 485.179,-1624 630.179,-1624 630.179,-1660"/>
<text text-anchor="middle" x="557.679" y="-1639.2" font-family="Courier,monospace" font-size="11.00">ChallengeDefinition</text>
</g>
<!-- \\LM\\AuthAbstractor\\Model\\PersistOperation -->
<g id="node32" class="node"><title>\\LM\\AuthAbstractor\\Model\\PersistOperation</title>
<polygon fill="none" stroke="black" points="620.179,-1606 495.179,-1606 495.179,-1570 620.179,-1570 620.179,-1606"/>
<text text-anchor="middle" x="557.679" y="-1585.2" font-family="Courier,monospace" font-size="11.00">PersistOperation</text>
</g>
<!-- \\LM\\AuthAbstractor\\Model\\U2fRegistrationRequest -->
<g id="node33" class="node"><title>\\LM\\AuthAbstractor\\Model\\U2fRegistrationRequest</title>
<polygon fill="none" stroke="black" points="640.179,-1552 475.179,-1552 475.179,-1516 640.179,-1516 640.179,-1552"/>
<text text-anchor="middle" x="557.679" y="-1531.2" font-family="Courier,monospace" font-size="11.00">U2fRegistrationRequest</text>
</g>
<!-- Serializable -->
<g id="node53" class="node"><title>Serializable</title>
<ellipse fill="none" stroke="black" cx="80.9942" cy="-1426" rx="64.9885" ry="18"/>
<text text-anchor="middle" x="80.9942" y="-1422.3" font-family="Times,serif" font-size="14.00" fill="gray">Serializable</text>
</g>
<!-- \\LM\\AuthAbstractor\\Model\\IAuthenticationProcess&#45;&gt;Serializable -->
<g id="edge22" class="edge"><title>\\LM\\AuthAbstractor\\Model\\IAuthenticationProcess&#45;&gt;Serializable</title>
<path fill="none" stroke="black" d="M217.883,-1426C197.662,-1426 176.103,-1426 156.255,-1426"/>
<polygon fill="none" stroke="black" points="156.047,-1422.5 146.047,-1426 156.047,-1429.5 156.047,-1422.5"/>
</g>
<!-- \\LM\\AuthAbstractor\\Model\\IU2fRegistration&#45;&gt;Serializable -->
<g id="edge23" class="edge"><title>\\LM\\AuthAbstractor\\Model\\IU2fRegistration&#45;&gt;Serializable</title>
<path fill="none" stroke="black" d="M495.046,-1478.45C422.603,-1475.94 298.943,-1469.45 193.988,-1453 175.316,-1450.07 155.168,-1445.63 137.178,-1441.19"/>
<polygon fill="none" stroke="black" points="137.982,-1437.78 127.429,-1438.73 136.27,-1444.57 137.982,-1437.78"/>
</g>
<!-- \\LM\\AuthAbstractor\\U2f\\U2fAuthenticationManager -->
<g id="node39" class="node"><title>\\LM\\AuthAbstractor\\U2f\\U2fAuthenticationManager</title>
<polygon fill="none" stroke="black" points="934.87,-764 755.87,-764 755.87,-728 934.87,-728 934.87,-764"/>
<text text-anchor="middle" x="845.37" y="-743.2" font-family="Courier,monospace" font-size="11.00">U2fAuthenticationManager</text>
</g>
<!-- \\LM\\AuthAbstractor\\U2f\\U2fRegistrationManager -->
<g id="node40" class="node"><title>\\LM\\AuthAbstractor\\U2f\\U2fRegistrationManager</title>
<polygon fill="none" stroke="black" points="927.87,-710 762.87,-710 762.87,-674 927.87,-674 927.87,-710"/>
<text text-anchor="middle" x="845.37" y="-689.2" font-family="Courier,monospace" font-size="11.00">U2fRegistrationManager</text>
</g>
<!-- \\LM\\AuthAbstractor\\U2f\\U2fServerGenerator -->
<g id="node41" class="node"><title>\\LM\\AuthAbstractor\\U2f\\U2fServerGenerator</title>
<polygon fill="none" stroke="black" points="914.37,-656 776.37,-656 776.37,-620 914.37,-620 914.37,-656"/>
<text text-anchor="middle" x="845.37" y="-635.2" font-family="Courier,monospace" font-size="11.00">U2fServerGenerator</text>
</g>
<!-- \\LM\\AuthAbstractor\\Validator\\PasswordValidator -->
<g id="node42" class="node"><title>\\LM\\AuthAbstractor\\Validator\\PasswordValidator</title>
<polygon fill="none" stroke="black" points="910.87,-576 779.87,-576 779.87,-540 910.87,-540 910.87,-576"/>
<text text-anchor="middle" x="845.37" y="-555.2" font-family="Courier,monospace" font-size="11.00">PasswordValidator</text>
</g>
<!-- \\LM\\Common\\DataStructure\\TypedMap -->
<g id="node43" class="node"><title>\\LM\\Common\\DataStructure\\TypedMap</title>
<polygon fill="none" stroke="black" points="880.87,-460 809.87,-460 809.87,-424 880.87,-424 880.87,-460"/>
<text text-anchor="middle" x="845.37" y="-439.2" font-family="Courier,monospace" font-size="11.00">TypedMap</text>
</g>
<!-- \\LM\\Common\\Enum\\IEnum -->
<g id="node46" class="node"><title>\\LM\\Common\\Enum\\IEnum</title>
<polygon fill="none" stroke="black" points="327.488,-380 273.488,-380 273.488,-344 327.488,-344 327.488,-380"/>
<text text-anchor="middle" x="300.488" y="-359.2" font-family="Courier,monospace" font-size="11.00">IEnum</text>
</g>
<!-- \\LM\\Common\\Enum\\AbstractEnum&#45;&gt;\\LM\\Common\\Enum\\IEnum -->
<g id="edge20" class="edge"><title>\\LM\\Common\\Enum\\AbstractEnum&#45;&gt;\\LM\\Common\\Enum\\IEnum</title>
<path fill="none" stroke="black" stroke-dasharray="1,5" d="M508.38,-362C458.75,-362 382.603,-362 337.85,-362"/>
<polygon fill="none" stroke="black" points="337.721,-358.5 327.721,-362 337.721,-365.5 337.721,-358.5"/>
</g>
<!-- \\LM\\Common\\Enum\\Scalar -->
<g id="node45" class="node"><title>\\LM\\Common\\Enum\\Scalar</title>
<polygon fill="none" stroke="black" points="873.87,-380 816.87,-380 816.87,-344 873.87,-344 873.87,-380"/>
<text text-anchor="middle" x="845.37" y="-359.2" font-family="Courier,monospace" font-size="11.00">Scalar</text>
</g>
<!-- \\LM\\Common\\Enum\\Scalar&#45;&gt;\\LM\\Common\\Enum\\AbstractEnum -->
<g id="edge21" class="edge"><title>\\LM\\Common\\Enum\\Scalar&#45;&gt;\\LM\\Common\\Enum\\AbstractEnum</title>
<path fill="none" stroke="black" d="M816.717,-362C770.849,-362 678.06,-362 617.158,-362"/>
<polygon fill="none" stroke="black" points="616.924,-358.5 606.924,-362 616.924,-365.5 616.924,-358.5"/>
</g>
<!-- \\LM\\Common\\Enum\\IEnum&#45;&gt;Serializable -->
<g id="edge24" class="edge"><title>\\LM\\Common\\Enum\\IEnum&#45;&gt;Serializable</title>
<path fill="none" stroke="black" d="M295.805,-380.021C270.238,-505.095 119.319,-1243.41 87.7728,-1397.73"/>
<polygon fill="none" stroke="black" points="84.2849,-1397.32 85.7112,-1407.82 91.1431,-1398.72 84.2849,-1397.32"/>
</g>
<!-- \\LM\\Common\\Model\\BooleanObject -->
<g id="node47" class="node"><title>\\LM\\Common\\Model\\BooleanObject</title>
<polygon fill="none" stroke="black" points="897.37,-300 793.37,-300 793.37,-264 897.37,-264 897.37,-300"/>
<text text-anchor="middle" x="845.37" y="-279.2" font-family="Courier,monospace" font-size="11.00">BooleanObject</text>
</g>
<!-- \\LM\\Common\\Model\\IntegerObject -->
<g id="node48" class="node"><title>\\LM\\Common\\Model\\IntegerObject</title>
<polygon fill="none" stroke="black" points="897.37,-246 793.37,-246 793.37,-210 897.37,-210 897.37,-246"/>
<text text-anchor="middle" x="845.37" y="-225.2" font-family="Courier,monospace" font-size="11.00">IntegerObject</text>
</g>
<!-- \\LM\\Common\\Model\\StringObject -->
<g id="node49" class="node"><title>\\LM\\Common\\Model\\StringObject</title>
<polygon fill="none" stroke="black" points="894.37,-192 796.37,-192 796.37,-156 894.37,-156 894.37,-192"/>
<text text-anchor="middle" x="845.37" y="-171.2" font-family="Courier,monospace" font-size="11.00">StringObject</text>
</g>
<!-- \\LM\\Common\\Type\\TypeCheckerTrait -->
<g id="node50" class="node"><title>\\LM\\Common\\Type\\TypeCheckerTrait</title>
<polygon fill="none" stroke="black" points="907.87,-112 782.87,-112 782.87,-76 907.87,-76 907.87,-112"/>
<text text-anchor="middle" x="845.37" y="-91.2" font-family="Courier,monospace" font-size="11.00">TypeCheckerTrait</text>
</g>
</g>
</svg>
